<?xml version="1.0" encoding="UTF-8" standalone="no"?>
<svg xmlns:dc="http://purl.org/dc/elements/1.1/" xmlns:cc="http://creativecommons.org/ns#"
  xmlns:rdf="http://www.w3.org/1999/02/22-rdf-syntax-ns#" xmlns:svg="http://www.w3.org/2000/svg"
  xmlns="http://www.w3.org/2000/svg" xmlns:sodipodi="http://sodipodi.sourceforge.net/DTD/sodipodi-0.dtd"
  xmlns:inkscape="http://www.inkscape.org/namespaces/inkscape" viewBox="0 0 98 78.239998" height="78.239998" width="98"
  xml:space="preserve" id="svg2" version="1.1" sodipodi:docname="Sidel_Group_Corporate_logo.svg"
  inkscape:version="0.92.4 (5da689c313, 2019-01-14)">
  <sodipodi:namedview pagecolor="#ffffff" bordercolor="#666666" borderopacity="1" objecttolerance="10"
    gridtolerance="10" guidetolerance="10" inkscape:pageopacity="0" inkscape:pageshadow="2" inkscape:window-width="1920"
    inkscape:window-height="1017" id="namedview9" showgrid="false" inkscape:zoom="2.5003511" inkscape:cx="181.53606"
    inkscape:cy="33.227791" inkscape:window-x="1672" inkscape:window-y="-8" inkscape:window-maximized="1"
    inkscape:current-layer="g12" />
  <metadata id="metadata8">
    <rdf:RDF>
      <cc:Work rdf:about="">
        <dc:format>image/svg+xml</dc:format>
        <dc:type rdf:resource="http://purl.org/dc/dcmitype/StillImage" />
      </cc:Work>
    </rdf:RDF>
  </metadata>
  <defs id="defs6" />
  <g transform="matrix(1.3333333,0,0,-1.3333333,0,78.24)" id="g10">
    <g transform="scale(0.1)" id="g12">
      <path id="path14" style="fill:#000000;fill-opacity:1;fill-rule:nonzero;stroke:none"
        d="M 606.824,168.594 724.035,313.371 H 603.359 l -57.562,-71.5 61.027,-73.277" />
      <path id="path16" style="fill:#000000;fill-opacity:1;fill-rule:nonzero;stroke:none"
        d="m 1259.32,359.93 h 83.3 v 68.59 h -83.3 z m 0.03,-349.96125 h 83.27 V 313.039 h -83.27 z M 2052.5,428.52 V 9.96875 h 83.25 V 428.52 Z M 1799.84,194.051 c 1.19,23.457 16.42,64.492 69.18,64.492 40.44,0 58.62,-22.313 66.22,-64.492 z m 71.52,127.191 c -92.07,0 -154.76,-69.172 -154.76,-160.031 0,-93.8087 59.2,-159.49225 154.76,-159.49225 68.6,0 118.42,30.53515 141.88,102.01125 h -73.28 c -5.3,-18.7495 -32.27,-39.2495 -65.71,-39.2495 -46.25,0 -72.05,24.0234 -74.41,76.8165 h 218.63 c 5.91,93.203 -43.89,179.945 -147.11,179.945 z M 1534.28,64.4922 c -51.59,0 -73.26,49.7928 -73.26,97.3128 0,49.773 18.7,96.738 73.26,96.738 53.89,0 71.55,-46.965 71.55,-96.172 0,-49.812 -16.45,-97.8788 -71.55,-97.8788 z m 68.57,211.6208 h -0.52 c -19.34,29.922 -54.56,45.129 -90.33,45.129 -89.09,0 -134.27,-75.59 -134.27,-157.101 0,-83.8285 44.59,-162.41444 136,-162.41444 38.72,0 72.71,14.09374 92.1,46.89454 h 1.16 V 9.96094 h 79.17 V 428.52 h -83.31 z m -498.27,-19.902 c -104.932,26.941 -124.885,31.039 -124.885,63.305 0,35.132 34.005,47.457 63.325,47.457 43.95,0 79.7,-12.91 82.63,-63.313 h 89.16 c 0,96.719 -80.31,134.817 -167.68,134.817 -75.646,0 -156.544,-41.043 -156.544,-126.633 0,-78.543 62.723,-102.528 124.864,-118.985 61.6,-16.394 124.3,-24.05 124.3,-69.148 0,-42.8126 -49.21,-52.2071 -81.51,-52.2071 -49.19,0 -92.576,21.707 -92.576,77.3831 H 876.508 C 875.34,45.7305 962.066,-0.00390625 1054.72,-0.00390625 c 113.74,0 174.13,57.47270625 174.13,134.28890625 0,94.934 -93.77,114.25 -124.27,121.926 z M 632.398,22.2266 c -34.062,13.9922 -62.73,41.8632 -86.964,70.5078 0,0 -18.2,-23.6563 -34.305,-41.2617 C 487.246,25.3516 461.406,14.4414 449.102,11.3555 v -1.543 h 225.777 v 1.7578 c 0,0 -3.434,0.461 -6.973,1.0352 -15.113,2.0429 -27.066,6.125 -35.508,9.6211 z M 218.277,166.434 c 0,92.832 75.989,167.945 169.778,167.945 46.246,0 92.398,-17.57 128.941,-59.887 l 2.106,-2.433 1.527,1.054 L 337.188,586.758 0,9.82422 h 329.176 l 0.715,1.51168 c -14.707,3.75 -28.555,11.5743 -32.977,14.3243 -47.258,29.25 -78.637,80.3168 -78.637,140.7738 z m 265.746,-0.157 c -8.066,10.168 -12.886,16.516 -26.847,34.2 -3.992,5.089 -5.684,6.855 -10.981,13.066 -14.617,17.109 -34.672,27.16 -58.129,27.16 -41.496,0 -75.152,-33.43 -75.058,-74.426 0,-41.062 33.562,-74.4528 75.058,-74.4528 23.457,0 43.512,10.1168 58.129,27.2268 5.297,6.222 6.989,7.929 10.981,13.047 14.015,17.675 18.781,24.425 26.847,34.179" />
    </g>
  </g>
</svg>